<svg width="1017" height="691" viewBox="0 0 1017 691" fill="none" xmlns="http://www.w3.org/2000/svg">
<rect width="1017" height="691" rx="12" fill="white"/>
<path d="M34.7898 110L24.9375 75.0909H31.7386L38.0284 100.744H38.3523L45.0682 75.0909H51.2557L57.9886 100.761H58.2955L64.5852 75.0909H71.3864L61.5341 110H55.2955L48.3068 85.5057H48.0341L41.0284 110H34.7898ZM84.4176 110.511C81.7926 110.511 79.5256 109.966 77.6165 108.875C75.7188 107.773 74.2585 106.216 73.2358 104.205C72.2131 102.182 71.7017 99.8011 71.7017 97.0625C71.7017 94.3693 72.2131 92.0057 73.2358 89.9716C74.2699 87.9261 75.7131 86.3352 77.5653 85.1989C79.4176 84.0511 81.5938 83.4773 84.0938 83.4773C85.7074 83.4773 87.2301 83.7386 88.6619 84.2614C90.1051 84.7727 91.3778 85.5682 92.4801 86.6477C93.5938 87.7273 94.4688 89.1023 95.1051 90.7727C95.7415 92.4318 96.0597 94.4091 96.0597 96.7045V98.5966H74.5994V94.4375H90.1449C90.1335 93.2557 89.8778 92.2045 89.3778 91.2841C88.8778 90.3523 88.179 89.6193 87.2812 89.0852C86.3949 88.5511 85.3608 88.2841 84.179 88.2841C82.9176 88.2841 81.8097 88.5909 80.8551 89.2045C79.9006 89.8068 79.1563 90.6023 78.6222 91.5909C78.0994 92.5682 77.8324 93.642 77.821 94.8125V98.4432C77.821 99.9659 78.0994 101.273 78.6562 102.364C79.2131 103.443 79.9915 104.273 80.9915 104.852C81.9915 105.42 83.1619 105.705 84.5028 105.705C85.4006 105.705 86.2131 105.58 86.9403 105.33C87.6676 105.068 88.2983 104.688 88.8324 104.188C89.3665 103.688 89.7699 103.068 90.0426 102.33L95.804 102.977C95.4403 104.5 94.7472 105.83 93.7244 106.966C92.7131 108.091 91.4176 108.966 89.8381 109.591C88.2585 110.205 86.4517 110.511 84.4176 110.511ZM107.45 75.0909V110H101.28V75.0909H107.45ZM119.966 75.0909V110H113.795V75.0909H119.966ZM147.933 110.46C145.876 110.46 144.036 109.932 142.411 108.875C140.786 107.818 139.501 106.284 138.558 104.273C137.615 102.261 137.143 99.8182 137.143 96.9432C137.143 94.0341 137.621 91.5795 138.575 89.5795C139.541 87.5682 140.842 86.0511 142.479 85.0284C144.115 83.9943 145.939 83.4773 147.95 83.4773C149.484 83.4773 150.746 83.7386 151.734 84.2614C152.723 84.7727 153.507 85.392 154.087 86.1193C154.666 86.8352 155.115 87.5114 155.433 88.1477H155.689V75.0909H161.876V110H155.808V105.875H155.433C155.115 106.511 154.655 107.187 154.053 107.903C153.45 108.608 152.655 109.21 151.666 109.71C150.678 110.21 149.433 110.46 147.933 110.46ZM149.655 105.398C150.962 105.398 152.075 105.045 152.996 104.341C153.916 103.625 154.615 102.631 155.092 101.358C155.57 100.085 155.808 98.6023 155.808 96.9091C155.808 95.2159 155.57 93.7443 155.092 92.4943C154.626 91.2443 153.933 90.2727 153.013 89.5795C152.104 88.8864 150.984 88.5398 149.655 88.5398C148.28 88.5398 147.132 88.8977 146.212 89.6136C145.291 90.3295 144.598 91.3182 144.132 92.5795C143.666 93.8409 143.433 95.2841 143.433 96.9091C143.433 98.5455 143.666 100.006 144.132 101.29C144.609 102.562 145.308 103.568 146.229 104.307C147.161 105.034 148.303 105.398 149.655 105.398ZM179.872 110.511C177.315 110.511 175.099 109.949 173.224 108.824C171.349 107.699 169.895 106.125 168.861 104.102C167.838 102.08 167.327 99.7159 167.327 97.0114C167.327 94.3068 167.838 91.9375 168.861 89.9034C169.895 87.8693 171.349 86.2898 173.224 85.1648C175.099 84.0398 177.315 83.4773 179.872 83.4773C182.429 83.4773 184.645 84.0398 186.52 85.1648C188.395 86.2898 189.844 87.8693 190.866 89.9034C191.901 91.9375 192.418 94.3068 192.418 97.0114C192.418 99.7159 191.901 102.08 190.866 104.102C189.844 106.125 188.395 107.699 186.52 108.824C184.645 109.949 182.429 110.511 179.872 110.511ZM179.906 105.568C181.293 105.568 182.452 105.187 183.384 104.426C184.315 103.653 185.009 102.619 185.463 101.324C185.929 100.028 186.162 98.5852 186.162 96.9943C186.162 95.392 185.929 93.9432 185.463 92.6477C185.009 91.3409 184.315 90.3011 183.384 89.5284C182.452 88.7557 181.293 88.3693 179.906 88.3693C178.486 88.3693 177.304 88.7557 176.361 89.5284C175.429 90.3011 174.73 91.3409 174.264 92.6477C173.81 93.9432 173.582 95.392 173.582 96.9943C173.582 98.5852 173.81 100.028 174.264 101.324C174.73 102.619 175.429 103.653 176.361 104.426C177.304 105.187 178.486 105.568 179.906 105.568ZM203.825 94.6591V110H197.655V83.8182H203.553V88.267H203.859C204.462 86.8011 205.422 85.6364 206.74 84.7727C208.07 83.9091 209.712 83.4773 211.666 83.4773C213.473 83.4773 215.047 83.8636 216.388 84.6364C217.74 85.4091 218.786 86.5284 219.524 87.9943C220.274 89.4602 220.643 91.2386 220.632 93.3295V110H214.462V94.2841C214.462 92.5341 214.007 91.1648 213.098 90.1761C212.2 89.1875 210.956 88.6932 209.365 88.6932C208.286 88.6932 207.325 88.9318 206.484 89.4091C205.655 89.875 205.001 90.5511 204.524 91.4375C204.058 92.3239 203.825 93.3977 203.825 94.6591ZM238.496 110.511C235.871 110.511 233.604 109.966 231.695 108.875C229.797 107.773 228.337 106.216 227.314 104.205C226.291 102.182 225.78 99.8011 225.78 97.0625C225.78 94.3693 226.291 92.0057 227.314 89.9716C228.348 87.9261 229.791 86.3352 231.643 85.1989C233.496 84.0511 235.672 83.4773 238.172 83.4773C239.786 83.4773 241.308 83.7386 242.74 84.2614C244.183 84.7727 245.456 85.5682 246.558 86.6477C247.672 87.7273 248.547 89.1023 249.183 90.7727C249.82 92.4318 250.138 94.4091 250.138 96.7045V98.5966H228.678V94.4375H244.223C244.212 93.2557 243.956 92.2045 243.456 91.2841C242.956 90.3523 242.257 89.6193 241.359 89.0852C240.473 88.5511 239.439 88.2841 238.257 88.2841C236.996 88.2841 235.888 88.5909 234.933 89.2045C233.979 89.8068 233.234 90.6023 232.7 91.5909C232.178 92.5682 231.911 93.642 231.899 94.8125V98.4432C231.899 99.9659 232.178 101.273 232.734 102.364C233.291 103.443 234.07 104.273 235.07 104.852C236.07 105.42 237.24 105.705 238.581 105.705C239.479 105.705 240.291 105.58 241.018 105.33C241.746 105.068 242.376 104.688 242.911 104.188C243.445 103.688 243.848 103.068 244.121 102.33L249.882 102.977C249.518 104.5 248.825 105.83 247.803 106.966C246.791 108.091 245.496 108.966 243.916 109.591C242.337 110.205 240.53 110.511 238.496 110.511ZM262.602 105.227L262.381 107.102C262.222 108.534 261.938 109.989 261.528 111.466C261.131 112.955 260.71 114.324 260.267 115.574C259.824 116.824 259.466 117.807 259.193 118.523H255.034C255.193 117.83 255.409 116.886 255.682 115.693C255.966 114.5 256.239 113.159 256.5 111.67C256.761 110.182 256.938 108.67 257.028 107.136L257.148 105.227H262.602Z" fill="#1D2859"/>
<path d="M24.7926 169.318H30.1491L36.554 180.901H36.8097L43.2145 169.318H48.571L39.0469 185.733V195.5H34.3168V185.733L24.7926 169.318ZM56.6346 195.884C54.717 195.884 53.055 195.462 51.6488 194.618C50.2425 193.774 49.1516 192.594 48.3761 191.077C47.609 189.56 47.2255 187.787 47.2255 185.759C47.2255 183.73 47.609 181.953 48.3761 180.428C49.1516 178.902 50.2425 177.717 51.6488 176.874C53.055 176.03 54.717 175.608 56.6346 175.608C58.5522 175.608 60.2141 176.03 61.6204 176.874C63.0266 177.717 64.1133 178.902 64.8803 180.428C65.6559 181.953 66.0437 183.73 66.0437 185.759C66.0437 187.787 65.6559 189.56 64.8803 191.077C64.1133 192.594 63.0266 193.774 61.6204 194.618C60.2141 195.462 58.5522 195.884 56.6346 195.884ZM56.6602 192.176C57.6999 192.176 58.5692 191.891 59.2681 191.32C59.967 190.74 60.4869 189.964 60.8278 188.993C61.1772 188.021 61.3519 186.939 61.3519 185.746C61.3519 184.544 61.1772 183.457 60.8278 182.486C60.4869 181.506 59.967 180.726 59.2681 180.146C58.5692 179.567 57.6999 179.277 56.6602 179.277C55.5948 179.277 54.7085 179.567 54.0011 180.146C53.3022 180.726 52.7781 181.506 52.4286 182.486C52.0877 183.457 51.9173 184.544 51.9173 185.746C51.9173 186.939 52.0877 188.021 52.4286 188.993C52.7781 189.964 53.3022 190.74 54.0011 191.32C54.7085 191.891 55.5948 192.176 56.6602 192.176ZM82.4872 187.241V175.864H87.1151V195.5H82.6278V192.01H82.4233C81.9801 193.109 81.2514 194.009 80.2372 194.707C79.2315 195.406 77.9915 195.756 76.517 195.756C75.2301 195.756 74.0923 195.47 73.1037 194.899C72.1236 194.32 71.3565 193.48 70.8026 192.381C70.2486 191.273 69.9716 189.935 69.9716 188.366V175.864H74.5994V187.651C74.5994 188.895 74.9403 189.884 75.6222 190.616C76.304 191.349 77.1989 191.716 78.3068 191.716C78.9886 191.716 79.6491 191.55 80.2884 191.217C80.9276 190.885 81.4517 190.391 81.8608 189.734C82.2784 189.07 82.4872 188.239 82.4872 187.241ZM100.804 195.5V175.864H105.291V179.136H105.495C105.853 178.003 106.467 177.129 107.336 176.516C108.214 175.893 109.216 175.582 110.341 175.582C110.596 175.582 110.882 175.595 111.197 175.621C111.521 175.638 111.789 175.668 112.002 175.71V179.967C111.806 179.899 111.495 179.839 111.069 179.788C110.652 179.729 110.247 179.699 109.855 179.699C109.011 179.699 108.252 179.882 107.579 180.249C106.914 180.607 106.39 181.105 106.007 181.744C105.623 182.384 105.431 183.121 105.431 183.956V195.5H100.804ZM122.962 195.884C120.993 195.884 119.293 195.474 117.861 194.656C116.438 193.83 115.342 192.662 114.575 191.153C113.808 189.636 113.425 187.851 113.425 185.797C113.425 183.777 113.808 182.004 114.575 180.479C115.351 178.945 116.433 177.751 117.822 176.899C119.212 176.038 120.844 175.608 122.719 175.608C123.929 175.608 125.071 175.804 126.145 176.196C127.227 176.58 128.182 177.176 129.009 177.986C129.844 178.795 130.5 179.827 130.977 181.08C131.455 182.324 131.693 183.807 131.693 185.528V186.947H115.598V183.828H127.257C127.249 182.942 127.057 182.153 126.682 181.463C126.307 180.764 125.783 180.214 125.109 179.814C124.445 179.413 123.669 179.213 122.783 179.213C121.837 179.213 121.006 179.443 120.29 179.903C119.574 180.355 119.016 180.952 118.615 181.693C118.223 182.426 118.023 183.232 118.014 184.109V186.832C118.014 187.974 118.223 188.955 118.641 189.773C119.058 190.582 119.642 191.205 120.392 191.639C121.142 192.065 122.02 192.278 123.026 192.278C123.699 192.278 124.308 192.185 124.854 191.997C125.399 191.801 125.872 191.516 126.273 191.141C126.673 190.766 126.976 190.301 127.18 189.747L131.501 190.233C131.229 191.375 130.709 192.372 129.942 193.224C129.183 194.068 128.212 194.724 127.027 195.193C125.842 195.653 124.487 195.884 122.962 195.884ZM140.236 169.318V195.5H135.608V169.318H140.236ZM153.688 195.884C151.719 195.884 150.019 195.474 148.587 194.656C147.164 193.83 146.069 192.662 145.302 191.153C144.535 189.636 144.151 187.851 144.151 185.797C144.151 183.777 144.535 182.004 145.302 180.479C146.077 178.945 147.16 177.751 148.549 176.899C149.938 176.038 151.57 175.608 153.445 175.608C154.656 175.608 155.798 175.804 156.871 176.196C157.954 176.58 158.908 177.176 159.735 177.986C160.57 178.795 161.227 179.827 161.704 181.08C162.181 182.324 162.42 183.807 162.42 185.528V186.947H146.325V183.828H157.984C157.975 182.942 157.783 182.153 157.408 181.463C157.033 180.764 156.509 180.214 155.836 179.814C155.171 179.413 154.396 179.213 153.509 179.213C152.563 179.213 151.732 179.443 151.016 179.903C150.3 180.355 149.742 180.952 149.342 181.693C148.95 182.426 148.749 183.232 148.741 184.109V186.832C148.741 187.974 148.95 188.955 149.367 189.773C149.785 190.582 150.369 191.205 151.119 191.639C151.869 192.065 152.746 192.278 153.752 192.278C154.425 192.278 155.035 192.185 155.58 191.997C156.126 191.801 156.599 191.516 156.999 191.141C157.4 190.766 157.702 190.301 157.907 189.747L162.228 190.233C161.955 191.375 161.435 192.372 160.668 193.224C159.91 194.068 158.938 194.724 157.754 195.193C156.569 195.653 155.214 195.884 153.688 195.884ZM171.985 195.896C170.741 195.896 169.62 195.675 168.623 195.232C167.635 194.78 166.85 194.115 166.271 193.237C165.7 192.359 165.414 191.277 165.414 189.99C165.414 188.882 165.619 187.966 166.028 187.241C166.437 186.517 166.995 185.938 167.703 185.503C168.41 185.068 169.207 184.74 170.093 184.518C170.988 184.288 171.913 184.122 172.868 184.02C174.018 183.901 174.951 183.794 175.667 183.7C176.383 183.598 176.903 183.445 177.227 183.24C177.559 183.027 177.725 182.699 177.725 182.256V182.179C177.725 181.216 177.44 180.47 176.869 179.942C176.298 179.413 175.475 179.149 174.402 179.149C173.268 179.149 172.369 179.396 171.704 179.891C171.048 180.385 170.605 180.969 170.375 181.642L166.054 181.028C166.395 179.835 166.957 178.838 167.741 178.037C168.525 177.227 169.484 176.622 170.618 176.222C171.751 175.812 173.004 175.608 174.376 175.608C175.322 175.608 176.264 175.719 177.201 175.94C178.139 176.162 178.995 176.528 179.771 177.04C180.547 177.543 181.169 178.229 181.637 179.098C182.115 179.967 182.353 181.054 182.353 182.358V195.5H177.904V192.803H177.751C177.47 193.348 177.074 193.859 176.562 194.337C176.059 194.805 175.424 195.185 174.657 195.474C173.899 195.756 173.008 195.896 171.985 195.896ZM173.187 192.496C174.116 192.496 174.922 192.312 175.603 191.946C176.285 191.571 176.809 191.077 177.176 190.463C177.551 189.849 177.738 189.18 177.738 188.456V186.142C177.593 186.261 177.346 186.372 176.997 186.474C176.656 186.577 176.272 186.666 175.846 186.743C175.42 186.82 174.998 186.888 174.581 186.947C174.163 187.007 173.801 187.058 173.494 187.101C172.804 187.195 172.186 187.348 171.64 187.561C171.095 187.774 170.664 188.072 170.349 188.456C170.034 188.831 169.876 189.317 169.876 189.913C169.876 190.766 170.187 191.409 170.809 191.844C171.431 192.278 172.224 192.496 173.187 192.496ZM202.527 181.054L198.308 181.514C198.189 181.088 197.98 180.688 197.681 180.312C197.392 179.938 197 179.635 196.505 179.405C196.011 179.175 195.406 179.06 194.69 179.06C193.727 179.06 192.917 179.268 192.261 179.686C191.613 180.104 191.294 180.645 191.302 181.31C191.294 181.881 191.502 182.345 191.929 182.703C192.363 183.061 193.079 183.355 194.076 183.585L197.426 184.301C199.284 184.702 200.664 185.337 201.568 186.206C202.48 187.075 202.94 188.213 202.949 189.619C202.94 190.855 202.578 191.946 201.862 192.892C201.154 193.83 200.17 194.562 198.909 195.091C197.647 195.619 196.199 195.884 194.562 195.884C192.159 195.884 190.224 195.381 188.758 194.375C187.292 193.361 186.419 191.95 186.137 190.143L190.65 189.709C190.855 190.595 191.289 191.264 191.954 191.716C192.619 192.168 193.484 192.393 194.549 192.393C195.649 192.393 196.531 192.168 197.196 191.716C197.869 191.264 198.206 190.706 198.206 190.041C198.206 189.479 197.988 189.014 197.554 188.648C197.127 188.281 196.463 188 195.559 187.804L192.21 187.101C190.326 186.709 188.933 186.048 188.029 185.119C187.126 184.182 186.679 182.997 186.687 181.565C186.679 180.355 187.007 179.307 187.672 178.42C188.345 177.526 189.278 176.835 190.471 176.349C191.673 175.855 193.058 175.608 194.626 175.608C196.927 175.608 198.738 176.098 200.059 177.078C201.389 178.058 202.211 179.384 202.527 181.054ZM215.458 195.884C213.489 195.884 211.789 195.474 210.357 194.656C208.934 193.83 207.838 192.662 207.071 191.153C206.304 189.636 205.921 187.851 205.921 185.797C205.921 183.777 206.304 182.004 207.071 180.479C207.847 178.945 208.929 177.751 210.319 176.899C211.708 176.038 213.34 175.608 215.215 175.608C216.425 175.608 217.567 175.804 218.641 176.196C219.723 176.58 220.678 177.176 221.505 177.986C222.34 178.795 222.996 179.827 223.473 181.08C223.951 182.324 224.189 183.807 224.189 185.528V186.947H208.094V183.828H219.753C219.745 182.942 219.553 182.153 219.178 181.463C218.803 180.764 218.279 180.214 217.605 179.814C216.941 179.413 216.165 179.213 215.279 179.213C214.333 179.213 213.502 179.443 212.786 179.903C212.07 180.355 211.512 180.952 211.111 181.693C210.719 182.426 210.519 183.232 210.51 184.109V186.832C210.51 187.974 210.719 188.955 211.137 189.773C211.554 190.582 212.138 191.205 212.888 191.639C213.638 192.065 214.516 192.278 215.522 192.278C216.195 192.278 216.804 192.185 217.35 191.997C217.895 191.801 218.368 191.516 218.769 191.141C219.169 190.766 219.472 190.301 219.676 189.747L223.998 190.233C223.725 191.375 223.205 192.372 222.438 193.224C221.679 194.068 220.708 194.724 219.523 195.193C218.338 195.653 216.983 195.884 215.458 195.884ZM235.391 195.845C233.849 195.845 232.468 195.449 231.249 194.656C230.031 193.864 229.067 192.713 228.36 191.205C227.653 189.696 227.299 187.864 227.299 185.707C227.299 183.526 227.657 181.685 228.373 180.185C229.097 178.676 230.073 177.538 231.3 176.771C232.528 175.996 233.896 175.608 235.404 175.608C236.555 175.608 237.501 175.804 238.242 176.196C238.984 176.58 239.572 177.044 240.006 177.589C240.441 178.126 240.778 178.634 241.016 179.111H241.208V169.318H245.849V195.5H241.298V192.406H241.016C240.778 192.884 240.433 193.391 239.981 193.928C239.529 194.456 238.933 194.908 238.191 195.283C237.45 195.658 236.516 195.845 235.391 195.845ZM236.683 192.048C237.663 192.048 238.498 191.784 239.188 191.256C239.879 190.719 240.403 189.973 240.761 189.018C241.119 188.064 241.298 186.952 241.298 185.682C241.298 184.412 241.119 183.308 240.761 182.371C240.411 181.433 239.891 180.705 239.201 180.185C238.519 179.665 237.68 179.405 236.683 179.405C235.651 179.405 234.79 179.673 234.1 180.21C233.41 180.747 232.89 181.489 232.54 182.435C232.191 183.381 232.016 184.463 232.016 185.682C232.016 186.909 232.191 188.004 232.54 188.967C232.898 189.922 233.423 190.676 234.113 191.23C234.812 191.776 235.668 192.048 236.683 192.048ZM277.25 175.864L270.257 195.5H265.143L258.15 175.864H263.085L267.598 190.45H267.802L272.328 175.864H277.25ZM280.452 195.5V175.864H285.08V195.5H280.452ZM282.779 173.077C282.046 173.077 281.415 172.834 280.887 172.348C280.358 171.854 280.094 171.261 280.094 170.571C280.094 169.872 280.358 169.28 280.887 168.794C281.415 168.3 282.046 168.053 282.779 168.053C283.52 168.053 284.151 168.3 284.671 168.794C285.199 169.28 285.463 169.872 285.463 170.571C285.463 171.261 285.199 171.854 284.671 172.348C284.151 172.834 283.52 173.077 282.779 173.077ZM297.126 195.845C295.583 195.845 294.202 195.449 292.984 194.656C291.765 193.864 290.802 192.713 290.094 191.205C289.387 189.696 289.033 187.864 289.033 185.707C289.033 183.526 289.391 181.685 290.107 180.185C290.832 178.676 291.808 177.538 293.035 176.771C294.262 175.996 295.63 175.608 297.138 175.608C298.289 175.608 299.235 175.804 299.977 176.196C300.718 176.58 301.306 177.044 301.741 177.589C302.175 178.126 302.512 178.634 302.751 179.111H302.942V169.318H307.583V195.5H303.032V192.406H302.751C302.512 192.884 302.167 193.391 301.715 193.928C301.263 194.456 300.667 194.908 299.925 195.283C299.184 195.658 298.251 195.845 297.126 195.845ZM298.417 192.048C299.397 192.048 300.232 191.784 300.923 191.256C301.613 190.719 302.137 189.973 302.495 189.018C302.853 188.064 303.032 186.952 303.032 185.682C303.032 184.412 302.853 183.308 302.495 182.371C302.146 181.433 301.626 180.705 300.935 180.185C300.254 179.665 299.414 179.405 298.417 179.405C297.386 179.405 296.525 179.673 295.835 180.21C295.144 180.747 294.624 181.489 294.275 182.435C293.925 183.381 293.751 184.463 293.751 185.682C293.751 186.909 293.925 188.004 294.275 188.967C294.633 189.922 295.157 190.676 295.847 191.23C296.546 191.776 297.403 192.048 298.417 192.048ZM321.208 195.884C319.239 195.884 317.539 195.474 316.107 194.656C314.684 193.83 313.588 192.662 312.821 191.153C312.054 189.636 311.671 187.851 311.671 185.797C311.671 183.777 312.054 182.004 312.821 180.479C313.597 178.945 314.679 177.751 316.069 176.899C317.458 176.038 319.09 175.608 320.965 175.608C322.175 175.608 323.317 175.804 324.391 176.196C325.473 176.58 326.428 177.176 327.255 177.986C328.09 178.795 328.746 179.827 329.223 181.08C329.701 182.324 329.939 183.807 329.939 185.528V186.947H313.844V183.828H325.503C325.495 182.942 325.303 182.153 324.928 181.463C324.553 180.764 324.029 180.214 323.355 179.814C322.691 179.413 321.915 179.213 321.029 179.213C320.083 179.213 319.252 179.443 318.536 179.903C317.82 180.355 317.262 180.952 316.861 181.693C316.469 182.426 316.269 183.232 316.26 184.109V186.832C316.26 187.974 316.469 188.955 316.887 189.773C317.304 190.582 317.888 191.205 318.638 191.639C319.388 192.065 320.266 192.278 321.272 192.278C321.945 192.278 322.554 192.185 323.1 191.997C323.645 191.801 324.118 191.516 324.519 191.141C324.919 190.766 325.222 190.301 325.426 189.747L329.748 190.233C329.475 191.375 328.955 192.372 328.188 193.224C327.429 194.068 326.458 194.724 325.273 195.193C324.088 195.653 322.733 195.884 321.208 195.884ZM342.42 195.884C340.502 195.884 338.84 195.462 337.434 194.618C336.028 193.774 334.937 192.594 334.161 191.077C333.394 189.56 333.011 187.787 333.011 185.759C333.011 183.73 333.394 181.953 334.161 180.428C334.937 178.902 336.028 177.717 337.434 176.874C338.84 176.03 340.502 175.608 342.42 175.608C344.337 175.608 345.999 176.03 347.406 176.874C348.812 177.717 349.898 178.902 350.665 180.428C351.441 181.953 351.829 183.73 351.829 185.759C351.829 187.787 351.441 189.56 350.665 191.077C349.898 192.594 348.812 193.774 347.406 194.618C345.999 195.462 344.337 195.884 342.42 195.884ZM342.445 192.176C343.485 192.176 344.354 191.891 345.053 191.32C345.752 190.74 346.272 189.964 346.613 188.993C346.962 188.021 347.137 186.939 347.137 185.746C347.137 184.544 346.962 183.457 346.613 182.486C346.272 181.506 345.752 180.726 345.053 180.146C344.354 179.567 343.485 179.277 342.445 179.277C341.38 179.277 340.494 179.567 339.786 180.146C339.087 180.726 338.563 181.506 338.214 182.486C337.873 183.457 337.702 184.544 337.702 185.746C337.702 186.939 337.873 188.021 338.214 188.993C338.563 189.964 339.087 190.74 339.786 191.32C340.494 191.891 341.38 192.176 342.445 192.176Z" fill="#1D2859"/>
<path d="M591.424 505.809C577.178 505.041 552.519 504.509 547.648 504.058C545.143 492.573 541.107 474.385 539.508 465.85C539.535 465.833 539.561 465.815 539.586 465.796C549.472 459.412 558.337 441.938 544.146 417.314C525.236 417.474 507.889 421.717 491.907 431.542C492.308 435.153 492.637 438.217 492.819 440.224C447.401 460.768 438.646 466.818 436.968 476.996C435.019 488.882 445.378 505.853 475.673 555.865C487.193 558.553 504.74 551.968 508.797 541.492C504.162 532.129 488.08 499.725 483.006 490.676C496.682 485.684 512.574 479.492 525.684 473.183C520.323 478.34 509.669 489.192 505.806 493.777C511.424 510.922 517.99 530.833 525.104 534.123C533.412 537.963 537.24 539.085 591.388 539.085C597.603 533.511 596.211 513.883 591.424 505.809Z" fill="#F86A4D"/>
<path d="M420.331 296.414C418.913 299.023 417.551 301.663 416.246 304.33C406.433 324.577 404.499 337.965 404.534 347.96C404.57 352.885 405.044 356.971 405.302 360.692V360.728C405.995 361.13 406.646 361.531 407.454 362.005C408.913 359.701 410.117 360.145 413.692 361.896C418.617 364.303 419.091 364.522 419.452 367.988C419.489 368.426 419.525 368.827 419.598 369.228C423.027 367.295 426.93 365.361 431.381 362.508C439.808 357.073 449.949 348.171 461.514 328.874C462.973 326.429 464.468 323.882 465.964 321.103L420.331 296.414ZM435.069 336.36L432.735 347.45L427.672 337.308L416.436 338.585L424.5 330.596L419.83 320.272L429.899 325.456L438.253 317.868L436.429 329.068L446.278 334.649L435.069 336.36Z" fill="#F86A4D"/>
<path d="M608.928 281.381C608.891 283.084 608.891 284.786 608.928 286.489C611.372 285.759 612.503 284.884 612.685 284.008C613.019 282.434 609.957 281.176 608.928 281.381Z" fill="#1D2859"/>
<path d="M596.419 508.798C595.264 508.769 594.108 508.83 592.963 508.981C596.173 516.933 596.356 529.264 593.731 535.684C597.955 541.338 610.435 549.875 620.142 552.465C619.438 537.216 603.131 515 596.419 508.798Z" fill="#1D2859"/>
<path d="M587.48 282.184C586.856 282.164 584.408 282.652 584.408 284.334C584.408 285.248 585.539 286.269 588.312 286.962C588.611 285.321 588.316 283.628 587.48 282.184Z" fill="#1D2859"/>
<path d="M545.857 383.929C546.368 391.48 547.171 400.491 547.171 406.729C549.943 396.989 553.336 385.206 555.306 378.676L545.857 383.929Z" fill="#1D2859"/>
<path d="M531.376 310.966C531.376 308.485 528.166 307.646 526.452 310.346C526.306 308.011 522.512 307.466 520.651 310.638C520.25 308.121 515.982 308.668 514.486 311.513C514.048 309.288 510.4 310.528 509.78 313.848C509.124 317.35 508.54 320.524 508.139 323.369C512.853 321.983 517.744 321.295 522.658 321.326C521.636 325.193 522.082 330.41 523.752 326.871C525.394 323.333 529.589 325.996 526.632 330.629C526.156 331.588 525.962 332.663 526.072 333.728C526.181 334.793 526.591 335.806 527.252 336.648C527.69 329.024 533.6 319.138 535.424 315.125C537.906 309.689 534.149 308.23 531.376 310.966Z" fill="#1D2859"/>
<path d="M502.338 483.299C503.432 486.545 504.6 490.084 505.794 493.768C510.099 488.661 522.538 476.586 527.025 472.537C519.192 476.368 510.615 480.052 502.338 483.299Z" fill="#1D2859"/>
<path d="M515.988 343.58C515.959 345.244 515.8 346.903 515.514 348.542C518.038 346.762 520.001 344.297 521.168 341.438C519.5 342.286 517.768 343.002 515.988 343.58Z" fill="#1D2859"/>
<path d="M507.078 544.73C508.816 546.078 510.405 547.607 511.82 549.29C503.357 569.354 485.226 586.245 478.076 590.732C478.79 578.95 481.224 567.336 485.299 556.258C493.507 555.164 502.74 551.005 507.078 544.73Z" fill="#1D2859"/>
<path d="M487.782 396.406C484.024 400.93 473.591 412.129 463.814 418.586C472.482 415.786 480.952 412.409 489.168 408.477C488.691 404.455 488.229 400.432 487.782 396.406Z" fill="#1D2859"/>
<path d="M424.562 373.202C423.759 372.728 422.373 373.312 421.352 374.807C422.192 376.316 423.55 377.469 425.174 378.054C425.766 375.209 425.366 373.676 424.562 373.202Z" fill="#1D2859"/>
<path d="M415.695 396.513C414.017 398.41 412.738 398.961 411.901 398.701C410.732 398.34 410.588 396.148 411.281 393.85C412.777 394.725 414.273 395.601 415.695 396.513Z" fill="#1D2859"/>
<path d="M388.081 532.145C389.536 532.165 390.979 531.895 392.328 531.352C393.678 530.808 394.906 530.003 395.941 528.981C396.976 527.959 397.798 526.742 398.359 525.4C398.92 524.058 399.209 522.618 399.209 521.164C399.209 519.71 398.92 518.27 398.359 516.928C397.798 515.586 396.976 514.369 395.941 513.347C394.906 512.326 393.678 511.52 392.328 510.976C390.979 510.433 389.536 510.163 388.081 510.183C385.194 510.221 382.438 511.395 380.41 513.45C378.381 515.505 377.244 518.276 377.244 521.164C377.244 524.052 378.381 526.823 380.41 528.878C382.438 530.934 385.194 532.107 388.081 532.145Z" fill="#1D2859"/>
<path d="M405.3 390.383C405.373 387.061 406.942 383.524 409.524 378.709C408.987 376.929 408.851 375.052 409.125 373.213C409.4 371.374 410.078 369.618 411.112 368.072C410.457 369.084 409.695 370.022 408.838 370.87C409.933 373.095 408.145 376.488 404.972 374.883L405.409 375.574C409.276 377.763 406.723 382.726 402.6 380.758L403.368 381.453C407.162 383.459 404.791 388.311 400.705 386.522C398.918 385.721 397.459 385.137 396.255 384.627C393.118 387.142 389.214 387.727 382.721 386.815L410.883 402.064C406.869 397.494 405.19 394.067 405.3 390.383Z" fill="#1D2859"/>
<path d="M381.778 386.316L374.92 395.292L408.08 413.277L411.874 402.623L381.778 386.316Z" fill="#1D2859"/>
<path d="M415.701 396.516C412.245 394.254 408.259 392.248 405.268 390.314" stroke="#1E1A1D" stroke-width="1.44" stroke-linecap="round" stroke-linejoin="round"/>
<path d="M507.998 324.54L501.14 252.602L448.098 385.608" stroke="#1E1A1D" stroke-width="1.44" stroke-linecap="round" stroke-linejoin="round"/>
<path d="M511.244 358.904L509.785 343.254" stroke="#1E1A1D" stroke-width="1.44" stroke-linecap="round" stroke-linejoin="round"/>
<path d="M587.963 505.628L637.831 380.574L550.242 396.042" stroke="#1E1A1D" stroke-width="1.44" stroke-linecap="round" stroke-linejoin="round"/>
<path d="M535.793 537.436L543.417 617.4L574.681 539.004" stroke="#1E1A1D" stroke-width="1.44" stroke-linecap="round" stroke-linejoin="round"/>
<path d="M437.006 413.404L406.691 489.429L437.043 484.066" stroke="#1E1A1D" stroke-width="1.44" stroke-linecap="round" stroke-linejoin="round"/>
<path d="M416.288 304.403L397.319 294.152C382.151 322.169 396.006 343.4 404.578 348.033" stroke="#1E1A1D" stroke-width="1.44" stroke-linecap="round" stroke-linejoin="round"/>
<path d="M427.703 337.344L416.467 338.584L424.492 330.631L419.823 320.307L429.891 325.488L438.245 317.863L436.421 329.026L446.271 334.644L435.072 336.359L432.81 347.449L427.703 337.344Z" stroke="#1E1A1D" stroke-width="1.44" stroke-linecap="round" stroke-linejoin="round"/>
<path d="M461.647 328.92L480.489 339.167C465.306 367.184 439.962 367.184 431.424 362.551" stroke="#1E1A1D" stroke-width="1.44" stroke-linecap="round" stroke-linejoin="round"/>
<path d="M403.164 562.945C415.049 562.945 424.685 553.31 424.685 541.424C424.685 529.537 415.049 519.902 403.164 519.902C391.279 519.902 381.643 529.537 381.643 541.424C381.643 553.31 391.277 562.945 403.164 562.945Z" stroke="#1E1A1D" stroke-width="1.44" stroke-linecap="round" stroke-linejoin="round"/>
<path d="M637.901 327.714C639.662 327.714 641.351 327.015 642.596 325.77C643.841 324.525 644.54 322.836 644.54 321.075C644.54 319.314 643.841 317.625 642.596 316.38C641.351 315.135 639.662 314.436 637.901 314.436C636.14 314.436 634.451 315.135 633.206 316.38C631.961 317.625 631.262 319.314 631.262 321.075C631.262 322.836 631.961 324.525 633.206 325.77C634.451 327.015 636.14 327.714 637.901 327.714Z" stroke="#1E1A1D" stroke-width="1.44" stroke-linecap="round" stroke-linejoin="round"/>
<path d="M380.061 438.283C380.96 438.283 381.823 437.926 382.46 437.29C383.096 436.653 383.453 435.79 383.453 434.891C383.453 433.991 383.096 433.128 382.46 432.492C381.823 431.855 380.96 431.498 380.061 431.498C379.161 431.498 378.298 431.855 377.662 432.492C377.025 433.128 376.668 433.991 376.668 434.891C376.668 435.79 377.025 436.653 377.662 437.29C378.298 437.926 379.161 438.283 380.061 438.283Z" stroke="#1E1A1D" stroke-width="1.44" stroke-linecap="round" stroke-linejoin="round"/>
<path d="M553.561 271.645L550.168 285.215L560.455 283.391L557.063 296.962" stroke="#1E1A1D" stroke-width="1.44" stroke-linecap="round" stroke-linejoin="round"/>
<path d="M402.571 380.721C406.699 382.679 409.243 377.735 405.38 375.537C402.5 373.899 400.419 372.872 398.084 371.67C397.389 371.268 396.565 371.15 395.785 371.341C395.004 371.531 394.328 372.015 393.895 372.692C393.463 373.369 393.308 374.187 393.463 374.975C393.618 375.763 394.071 376.461 394.728 376.923C396.587 378.096 398.783 378.924 402.571 380.721Z" stroke="#1E1A1D" stroke-width="1.44" stroke-linecap="round" stroke-linejoin="round"/>
<path d="M407.492 362.044C406.033 361.168 404.979 360.577 403.552 359.74C402.88 359.271 402.049 359.088 401.241 359.231C400.434 359.375 399.717 359.834 399.248 360.506C398.778 361.178 398.596 362.01 398.739 362.817C398.883 363.624 399.341 364.341 400.014 364.811C401.574 365.852 403.208 366.778 404.902 367.583" stroke="#1E1A1D" stroke-width="1.44" stroke-linecap="round" stroke-linejoin="round"/>
<path d="M400.745 386.52C404.794 388.307 407.164 383.461 403.372 381.449C400.561 379.957 398.478 379.016 396.222 377.947C395.541 377.565 394.738 377.461 393.983 377.658C393.227 377.856 392.578 378.339 392.171 379.005C391.765 379.672 391.633 380.47 391.803 381.232C391.973 381.994 392.433 382.661 393.084 383.091C394.908 384.147 397.024 384.878 400.745 386.52Z" stroke="#1E1A1D" stroke-width="1.44" stroke-linecap="round" stroke-linejoin="round"/>
<path d="M404.829 367.73C403.333 366.928 402.012 366.323 400.56 365.541C399.864 365.109 399.026 364.964 398.225 365.138C397.424 365.312 396.722 365.791 396.267 366.473C395.812 367.155 395.64 367.987 395.788 368.794C395.936 369.6 396.391 370.318 397.058 370.794C398.953 372.039 401.115 372.931 404.93 374.844C408.11 376.435 409.892 373.056 408.797 370.831" stroke="#1E1A1D" stroke-width="1.44" stroke-linecap="round" stroke-linejoin="round"/>
<path d="M421.318 374.81C422.376 373.314 423.754 372.744 424.565 373.204C426.01 374.03 426.131 378.239 421.646 387.103C416.865 396.552 413.509 399.222 411.87 398.704C410.737 398.345 410.556 396.114 411.249 393.852" stroke="#1E1A1D" stroke-width="1.44" stroke-linecap="round" stroke-linejoin="round"/>
<path d="M425.178 378.055C422.698 377.034 420.186 375.214 419.487 367.987C419.148 364.531 418.65 364.3 413.727 361.894C407.967 359.082 408.292 359.59 403.951 369.811C402.883 372.324 406.796 374.918 411.32 367.622C407.781 373.203 408.44 378.758 411.685 382.287" stroke="#1E1A1D" stroke-width="1.44" stroke-linecap="round" stroke-linejoin="round"/>
<path d="M601.823 267.448C601.462 272.008 595.93 272.154 595.949 267.74C595.963 264.457 596.103 262.122 596.241 259.495C596.471 255.118 602.31 255.154 602.443 258.766C602.527 260.954 602.159 263.253 601.823 267.448Z" stroke="#1E1A1D" stroke-width="1.44" stroke-linecap="round" stroke-linejoin="round"/>
<path d="M583.254 264.098C583.217 262.493 583.242 261.322 583.217 259.79C583.15 255.631 589.075 255.443 589.346 258.914C589.471 260.686 589.471 262.466 589.346 264.24" stroke="#1E1A1D" stroke-width="1.44" stroke-linecap="round" stroke-linejoin="round"/>
<path d="M608.1 268.507C607.643 272.959 602.28 272.957 602.445 268.653C602.568 265.479 602.768 263.217 602.956 260.7C603.273 256.476 608.939 256.651 608.939 260.124C608.939 262.232 608.516 264.459 608.1 268.507Z" stroke="#1E1A1D" stroke-width="1.44" stroke-linecap="round" stroke-linejoin="round"/>
<path d="M589.492 264.203C589.529 262.488 589.673 261.029 589.711 259.387C589.815 254.937 595.757 254.864 595.986 258.512C596.126 260.739 595.803 263.072 595.584 267.344C595.598 267.981 595.406 268.606 595.037 269.125C594.668 269.645 594.142 270.032 593.536 270.23C592.93 270.427 592.276 270.423 591.673 270.219C591.069 270.015 590.548 269.621 590.185 269.097" stroke="#1E1A1D" stroke-width="1.44" stroke-linecap="round" stroke-linejoin="round"/>
<path d="M587.452 282.186C585.628 282.478 584.461 283.353 584.461 284.265C584.461 285.907 588 287.871 597.886 287.695C608.392 287.503 612.372 285.652 612.733 283.974C612.992 282.77 611.456 281.67 609.158 281.311" stroke="#1E1A1D" stroke-width="1.44" stroke-linecap="round" stroke-linejoin="round"/>
<path d="M588.361 286.929C588.69 284.266 588.348 281.258 582.488 277.481C579.673 275.667 579.713 275.11 580.08 269.674C580.514 263.254 580.775 263.795 591.754 264.348C594.453 264.485 594.745 269.127 586.209 270.003C592.775 269.273 597.262 272.264 598.689 276.679" stroke="#1E1A1D" stroke-width="1.44" stroke-linecap="round" stroke-linejoin="round"/>
<path d="M608.975 286.455C608.756 278.94 609.551 266.829 608.975 260.992" stroke="#1E1A1D" stroke-width="1.44" stroke-linecap="round" stroke-linejoin="round"/>
<path d="M584.462 284.301C584.535 293.421 584.462 316.768 583.842 327.676C580.962 329.572 558.235 340.924 548.493 345.441C539.674 349.533 532.219 348.686 528.745 343.126C523.945 335.446 532.142 322.53 535.465 315.126C537.91 309.691 534.189 308.232 531.416 310.968C531.416 308.524 528.206 307.648 526.491 310.348C526.309 308.013 522.515 307.468 520.691 310.639C520.253 308.159 516.022 308.706 514.526 311.515C514.088 309.326 510.465 310.555 509.82 313.85C504.027 343.343 507.516 348.218 521.238 341.428C520.071 344.288 518.109 346.753 515.584 348.532" stroke="#1E1A1D" stroke-width="1.44" stroke-linecap="round" stroke-linejoin="round"/>
<path d="M612.729 284.012C612.729 335.412 613.288 337.935 610.577 343C606.981 349.72 599.888 353.907 545.861 383.93C546.409 391.482 547.175 400.492 547.175 406.73" stroke="#1E1A1D" stroke-width="1.44" stroke-linecap="round" stroke-linejoin="round"/>
<path d="M424.566 373.203C436.605 380.426 452.948 387.868 454.991 388.817C464.111 385.096 494.276 371.483 506.639 363.354C513.86 358.607 515.941 348.798 515.978 343.545" stroke="#1E1A1D" stroke-width="1.44" stroke-linecap="round" stroke-linejoin="round"/>
<path d="M506.648 363.386C511.427 368.42 529.923 364.922 534.702 347.59" stroke="#1E1A1D" stroke-width="1.44" stroke-linecap="round" stroke-linejoin="round"/>
<path d="M508.143 323.374C512.858 321.995 517.749 321.307 522.662 321.331C521.64 325.234 522.086 330.487 523.756 326.876C525.426 323.264 529.61 326.048 526.636 330.633C526.152 331.59 525.954 332.667 526.064 333.734C526.174 334.801 526.587 335.814 527.256 336.652" stroke="#1E1A1D" stroke-width="1.44" stroke-linecap="round" stroke-linejoin="round"/>
<path d="M477.424 492.678C493.913 486.768 520.916 476.784 538.82 466.303C548.965 460.364 558.738 442.591 544.182 417.31C546.918 407.71 552.536 387.907 555.318 378.68" stroke="#1E1A1D" stroke-width="1.44" stroke-linecap="round" stroke-linejoin="round"/>
<path d="M510.73 432.154C449.589 459.368 438.878 465.572 436.967 476.988C435.337 486.73 439.484 496.505 475.673 555.9C485.741 558.636 504.638 552.544 508.796 541.5C497.925 519.42 486.617 497.148 483.005 490.684" stroke="#1E1A1D" stroke-width="1.44" stroke-linecap="round" stroke-linejoin="round"/>
<path d="M502.379 483.301C508.653 501.614 516.497 530.105 525.142 534.117C533.788 538.13 537.144 538.933 591.382 539.079C596.818 534.92 597 514.747 591.382 505.772C576.982 504.97 552.823 504.496 547.679 504.021C545.162 492.348 541.151 474.069 539.615 465.754" stroke="#1E1A1D" stroke-width="1.44" stroke-linecap="round" stroke-linejoin="round"/>
<path d="M507.083 544.732C509.665 546.873 512.013 549.282 514.087 551.919C509.709 564.14 492.391 587.268 478.154 596.06C477.315 586.611 480.817 567.496 485.268 556.26" stroke="#1E1A1D" stroke-width="1.44" stroke-linecap="round" stroke-linejoin="round"/>
<path d="M580.077 505.299C584.893 510.698 587.264 529.12 579.348 539.043" stroke="#1E1A1D" stroke-width="1.44" stroke-linecap="round" stroke-linejoin="round"/>
<path d="M469.111 545.099C480.201 547.543 497.719 543.092 503.33 530.434" stroke="#1E1A1D" stroke-width="1.44" stroke-linecap="round" stroke-linejoin="round"/>
<path d="M478.012 590.736C485.089 586.285 503.329 569.358 511.792 549.264" stroke="#1E1A1D" stroke-width="1.44" stroke-linecap="round" stroke-linejoin="round"/>
<path d="M592.961 508.945C595.154 508.69 597.37 508.69 599.564 508.945C605.729 513.937 622.947 534.591 623.166 553.086C613.244 551.742 598.469 541.96 593.727 535.649" stroke="#1E1A1D" stroke-width="1.44" stroke-linecap="round" stroke-linejoin="round"/>
<path d="M596.424 508.801C603.144 515.002 619.406 537.217 620.136 552.467" stroke="#1E1A1D" stroke-width="1.44" stroke-linecap="round" stroke-linejoin="round"/>
<path d="M487.018 388.816C487.966 400.162 492.01 430.914 492.778 440.18" stroke="#1E1A1D" stroke-width="1.44" stroke-linecap="round" stroke-linejoin="round"/>
<path d="M544.186 417.309C523.538 417.455 506.539 422.562 491.91 431.536" stroke="#1E1A1D" stroke-width="1.44" stroke-linecap="round" stroke-linejoin="round"/>
<path d="M491.14 542.216C483.188 526.785 466.699 491.582 463.16 484.213C479.649 475.896 521.565 458.458 528.788 453.971C536.011 449.484 538.856 443.72 531.195 418.111" stroke="#1E1A1D" stroke-width="1.44" stroke-linecap="round" stroke-linejoin="round"/>
<path d="M411.904 398.715C446.451 419.608 451.998 421.874 460.642 419.499C470.428 416.59 479.967 412.906 489.169 408.482" stroke="#1E1A1D" stroke-width="1.44" stroke-linecap="round" stroke-linejoin="round"/>
<path d="M463.816 418.586C473.56 412.129 484.026 400.893 487.784 396.41" stroke="#1E1A1D" stroke-width="1.44" stroke-linecap="round" stroke-linejoin="round"/>
<path d="M505.842 493.77C510.146 488.663 522.586 476.625 527.073 472.539" stroke="#1E1A1D" stroke-width="1.44" stroke-linecap="round" stroke-linejoin="round"/>
<path d="M367.074 333.514L368.339 340.666" stroke="#1E1A1D" stroke-width="1.44" stroke-linecap="round" stroke-linejoin="round"/>
<path d="M383.451 344.971L376.299 346.236" stroke="#1E1A1D" stroke-width="1.44" stroke-linecap="round" stroke-linejoin="round"/>
<path d="M371.996 361.349L370.73 354.195" stroke="#1E1A1D" stroke-width="1.44" stroke-linecap="round" stroke-linejoin="round"/>
<path d="M355.617 349.89L362.773 348.623" stroke="#1E1A1D" stroke-width="1.44" stroke-linecap="round" stroke-linejoin="round"/>
<path d="M376.3 346.238C375.412 346.396 374.501 346.377 373.621 346.182C372.74 345.987 371.907 345.62 371.168 345.103C370.429 344.586 369.8 343.928 369.316 343.167C368.832 342.405 368.503 341.556 368.347 340.668C368.506 341.556 368.487 342.467 368.293 343.349C368.098 344.23 367.732 345.064 367.215 345.803C366.698 346.543 366.04 347.173 365.279 347.658C364.517 348.143 363.668 348.472 362.779 348.628C363.667 348.47 364.578 348.489 365.459 348.683C366.34 348.878 367.174 349.244 367.913 349.762C368.652 350.279 369.282 350.937 369.766 351.698C370.25 352.459 370.58 353.308 370.736 354.196C370.578 353.308 370.597 352.398 370.791 351.517C370.985 350.637 371.351 349.803 371.868 349.064C372.385 348.325 373.042 347.695 373.803 347.21C374.563 346.725 375.412 346.395 376.3 346.238Z" stroke="#1E1A1D" stroke-width="1.44" stroke-linecap="round" stroke-linejoin="round"/>
<path d="M637.867 441.785L639.68 452.042" stroke="#1E1A1D" stroke-width="1.44" stroke-linecap="round" stroke-linejoin="round"/>
<path d="M661.348 458.217L651.092 460.029" stroke="#1E1A1D" stroke-width="1.44" stroke-linecap="round" stroke-linejoin="round"/>
<path d="M644.92 481.698L643.105 471.441" stroke="#1E1A1D" stroke-width="1.44" stroke-linecap="round" stroke-linejoin="round"/>
<path d="M621.436 465.27L631.698 463.457" stroke="#1E1A1D" stroke-width="1.44" stroke-linecap="round" stroke-linejoin="round"/>
<path d="M651.093 460.028C649.819 460.254 648.513 460.227 647.25 459.949C645.987 459.67 644.79 459.145 643.73 458.404C642.669 457.663 641.765 456.719 641.069 455.628C640.374 454.536 639.902 453.318 639.679 452.043C639.905 453.317 639.879 454.622 639.601 455.886C639.323 457.149 638.799 458.345 638.058 459.406C637.316 460.466 636.373 461.369 635.282 462.064C634.191 462.76 632.973 463.233 631.699 463.457C633.617 463.117 635.593 463.353 637.377 464.137C639.16 464.92 640.671 466.215 641.718 467.858C642.413 468.95 642.885 470.168 643.108 471.443C642.882 470.169 642.909 468.863 643.188 467.599C643.466 466.336 643.991 465.14 644.732 464.079C645.473 463.018 646.417 462.114 647.508 461.419C648.6 460.724 649.818 460.251 651.093 460.028Z" stroke="#1E1A1D" stroke-width="1.44" stroke-linecap="round" stroke-linejoin="round"/>
<path d="M420.333 296.414C418.915 299.023 417.553 301.663 416.248 304.33C406.434 324.577 404.501 337.965 404.536 347.96C404.572 352.885 405.046 356.971 405.304 360.692V360.728C405.997 361.13 406.648 361.531 407.456 362.005C408.915 359.701 410.119 360.145 413.694 361.896C418.619 364.303 419.093 364.522 419.454 367.988C419.49 368.426 419.527 368.827 419.6 369.228C423.029 367.295 426.932 365.361 431.383 362.508C439.81 357.073 449.951 348.171 461.515 328.874C462.975 326.429 464.47 323.882 465.966 321.103L420.333 296.414ZM435.071 336.36L432.737 347.45L427.674 337.308L416.438 338.585L424.502 330.596L419.832 320.272L429.901 325.456L438.255 317.868L436.431 329.068L446.28 334.649L435.071 336.36Z" stroke="#1E1A1D" stroke-width="1.44" stroke-linejoin="round"/>
<path d="M405.302 390.387C405.375 387.065 406.943 383.528 409.526 378.713C408.989 376.933 408.853 375.056 409.127 373.217C409.402 371.377 410.08 369.622 411.114 368.076C410.459 369.088 409.697 370.026 408.84 370.874C409.935 373.099 408.147 376.492 404.974 374.886L405.411 375.578C409.278 377.766 406.725 382.73 402.602 380.762L403.37 381.457C407.164 383.463 404.793 388.315 400.707 386.525C398.92 385.725 397.461 385.141 396.257 384.63C393.119 387.146 389.216 387.731 382.723 386.819L410.885 402.068C406.871 397.498 405.192 394.071 405.302 390.387Z" stroke="#1E1A1D" stroke-width="1.44" stroke-linejoin="round"/>
<path d="M381.813 386.32L374.955 395.296L408.115 413.281L411.909 402.627L381.813 386.32Z" stroke="#1E1A1D" stroke-width="1.44" stroke-linejoin="round"/>
</svg>
